<?xml version="1.0" encoding="utf-8"?>
<!-- Uploaded to: SVG Repo, www.svgrepo.com, Generator: SVG Repo Mixer Tools -->
<svg fill="#000000" version="1.1" id="_x31_" xmlns="http://www.w3.org/2000/svg" xmlns:xlink="http://www.w3.org/1999/xlink" 
	 viewBox="0 0 128 128" xml:space="preserve">
<g>
	<rect x="37.6" y="69.8" width="55.6" height="3.6"/>
	<circle cx="32.2" cy="27" r="10.2"/>
	<path d="M47.7,77.7H30.5l0-12.8l-8.8-15.2c-0.3-0.6-0.1-1.4,0.5-1.7c0.6-0.3,1.4-0.1,1.7,0.5L34,66c0.8,1.3,2.2,2.2,3.8,2.2h17.6
		c2.5,0,4.5-2,4.5-4.5c0-2.5-2-4.5-4.5-4.5l-14.7,0.1L29,39.6c-0.9-1.6-2.6-2.4-4.7-2.4c-0.3,0-0.9,0.1-1.2,0.2
		c-0.3,0.1-0.7,0.2-1,0.3C13.6,40.5,6.8,54.1,6.8,68.2C6.7,72.5,6.8,76,7,79.4c-0.3,4.1,2.1,8,6.1,9.5c1,0.3,2.1,0.6,3.1,0.6h25.6
		v24c0,3.3,2.6,5.8,5.8,5.8s5.8-2.6,5.8-5.8V83.6c0-1.5-0.6-3-1.7-4.1C50.6,78.3,49.1,77.7,47.7,77.7z"/>
	<circle cx="98.1" cy="27" r="10.2"/>
	<path d="M123.5,68.2c0-14.1-6.8-27.7-15.3-30.5c-0.3-0.1-0.7-0.2-1-0.3c-0.3-0.1-0.9-0.2-1.2-0.2c-2.1,0-3.8,0.8-4.7,2.4L89.7,59.4
		l-14.7-0.1c-2.4,0-4.5,2-4.5,4.5c0,2.4,2,4.5,4.5,4.5h17.6c1.6,0,3-0.9,3.8-2.2l10.2-17.6c0.3-0.6,1.1-0.8,1.7-0.5
		c0.6,0.3,0.8,1.1,0.5,1.7l-8.8,15.2l0,12.8H82.6c-1.4,0-2.9,0.6-4.1,1.7c-1.2,1-1.7,2.6-1.7,4.1v29.9c0,3.3,2.6,5.8,5.8,5.8
		s5.8-2.6,5.8-5.8v-24H114c1,0,2.1-0.2,3.1-0.6c4-1.5,6.4-5.5,6.1-9.5C123.5,76,123.6,72.5,123.5,68.2z"/>
</g>
</svg>